<svg width="50" height="31" viewBox="0 0 50 31" fill="none" xmlns="http://www.w3.org/2000/svg">
<path d="M40.909 12.651C39.643 12.651 38.44 12.911 37.347 13.378L34.271 8.107L36.589 4.134C36.904 3.592 36.721 2.896 36.18 2.579C35.942 2.441 35.677 2.191 35.426 2.232L35.229 2H30.682C30.055 2 29.546 2.873 29.546 3.5C29.546 4.128 30.055 5 30.682 5H33.629L32.302 7H19.024L21.676 2H22.727C23.354 2 23.863 1.628 23.863 1C23.863 0.372 23.354 0 22.727 0H17.044C16.418 0 15.908 0.372 15.908 1C15.908 1.628 16.417 2 17.044 2H19.043L12.654 13.165C11.56 12.698 10.355 12.545 9.09 12.545C4.07 12.545 0 16.669 0 21.689C0 26.71 4.07 30.806 9.091 30.806C14.112 30.806 18.182 26.749 18.182 21.728C18.182 18.788 16.78 16.187 14.612 14.524L17.045 10.358L24.019 22.314L24.046 22.352L24.076 22.397L24.099 22.431L24.189 22.535L24.2 22.548L24.231 22.576L24.263 22.602L24.351 22.672L24.388 22.696L24.417 22.715L24.429 22.722L24.433 22.726L24.529 22.773L24.54 22.778L24.563 22.79L24.571 22.792L24.644 22.818L24.712 22.84L24.726 22.844L24.751 22.848L24.795 22.857L24.999 22.878L25 22.94L25.004 22.999H31.895C32.457 26.999 36.273 30.894 40.908 30.894C45.929 30.894 49.999 26.793 49.999 21.772C50 16.752 45.93 12.651 40.909 12.651ZM15.909 21.742C15.909 25.509 12.857 28.561 9.091 28.561C5.325 28.561 2.273 25.508 2.273 21.742C2.273 17.977 5.325 14.925 9.091 14.925C9.938 14.925 10.746 15.086 11.494 15.369L8.109 21.171C7.793 21.712 7.977 22.408 8.519 22.726C8.699 22.83 8.896 22.88 9.09 22.88C9.481 22.88 9.861 22.678 10.073 22.317L13.459 16.511C14.955 17.762 15.909 19.641 15.909 21.742ZM25 19.244L19.024 9H30.977L25 19.244ZM32.954 10.559L35.388 14.827C33.506 16.271 32.206 18 31.896 21H26.978L32.954 10.559ZM36.541 16.904L38.932 21H34.194C34.468 19 35.32 17.925 36.541 16.904ZM40.909 28.623C37.532 28.623 34.734 26 34.193 23H40.906L40.911 22.941L41.114 22.888L41.16 22.865L41.349 22.799L41.37 22.783L41.483 22.725L41.51 22.704L41.611 22.631L41.689 22.565L41.765 22.482L41.833 22.397L41.89 22.305L41.942 22.21L41.981 22.106L42.012 22.002L42.029 21.898L42.042 21.775L42.045 21.74L42.04 21.676L42.026 21.552L42.003 21.446L41.97 21.342L41.918 21.229L41.891 21.17L38.506 15.368C39.256 15.085 40.063 14.924 40.909 14.924C44.676 14.924 47.728 18.007 47.728 21.772C47.729 25.539 44.676 28.623 40.909 28.623Z" fill="#EEEEEE"/>
</svg>
