<svg width="35" height="35" viewBox="0 0 35 35" fill="none" xmlns="http://www.w3.org/2000/svg">
<path d="M2 34.875C2 34.875 2 30.375 2 19.875C2 9.375 21 9.37501 21 19.875C21 30.3749 21 34.875 21 34.875" stroke="#EEEEEE" stroke-width="3"/>
<path d="M14 24.875C14 24.875 14 20.375 14 9.87498C14 -0.624998 33 -0.624987 33 9.87498C33 20.3749 33 24.875 33 24.875" stroke="#EEEEEE" stroke-width="3"/>
<path d="M8 28.875C8 28.875 8 24.375 8 13.875C8 3.375 27 3.37501 27 13.875C27 24.3749 27 28.875 27 28.875" stroke="#EEEEEE" stroke-width="3"/>
</svg>
