<svg width="129" height="122" viewBox="0 0 129 122" fill="none" xmlns="http://www.w3.org/2000/svg">
<path d="M89 8H124.635C125.433 8 125.91 8.88869 125.468 9.55335L115.167 25.0593C115.058 25.2233 115 25.4158 115 25.6127V41C115 41.5523 114.552 42 114 42H111.5C110.948 42 110.5 42.4477 110.5 43V50.5C110.5 51.0523 110.948 51.5 111.5 51.5H114C114.552 51.5 115 51.9477 115 52.5V55.5C115 56.0523 114.552 56.5 114 56.5H111.5C110.948 56.5 110.5 56.9477 110.5 57.5V79L111.167 83.8617C111.214 84.1992 110.951 84.5 110.611 84.5C110.282 84.5 110.023 84.781 110.051 85.1085L110.5 90.5V111C110.5 111.552 110.052 112 109.5 112H100.914C100.649 112 100.395 112.105 100.207 112.293L99.8002 112.7C99.6083 112.892 99.3468 112.997 99.0755 112.993L72.0175 112.518C71.4585 112.508 71 112.959 71 113.518V118C71 118.552 70.5523 119 70 119H65.9454C65.6619 119 65.3917 118.88 65.2021 118.669L61.1355 114.151C61.0461 114.051 60.9775 113.935 60.9338 113.809L56.555 101.159C56.5186 101.054 56.5 100.943 56.5 100.832V97C56.5 96.4477 56.0523 96 55.5 96H53.618C53.2393 96 52.893 95.786 52.7236 95.4472L52.0835 94.1671C51.7893 93.5785 51.0166 93.4297 50.5247 93.8669L47.5387 96.5212C47.217 96.8071 47.1144 97.2669 47.2839 97.6625L48.4191 100.311C48.4725 100.436 48.5 100.57 48.5 100.705V107.89C48.5 107.963 48.492 108.036 48.4762 108.107L47.674 111.717C47.5723 112.174 47.1665 112.5 46.6978 112.5H43.5C42.9477 112.5 42.5 112.052 42.5 111.5V106.5C42.5 105.948 42.0523 105.5 41.5 105.5H37.177C36.7681 105.5 36.4004 105.251 36.2486 104.871L33.5715 98.1788C33.5243 98.0607 33.5 97.9346 33.5 97.8074V94.0146C33.5 93.6917 33.344 93.3886 33.0812 93.2009L30.1692 91.1209C30.0576 91.0412 29.9636 90.9393 29.893 90.8217L25.6039 83.6732C25.5353 83.5589 25.4903 83.432 25.4714 83.3001L25.0741 80.5187C25.0277 80.1938 24.8249 79.9124 24.5314 79.7657L21.1147 78.0574C21.0386 78.0193 20.9676 77.9716 20.9035 77.9155L17.3096 74.7709C17.1113 74.5974 16.9895 74.3525 16.9707 74.0896L16.616 69.1238C16.5629 68.38 15.7435 67.9539 15.104 68.3376L11.8552 70.2869C11.6278 70.4233 11.3555 70.4639 11.0982 70.3995L10.5476 70.2619C9.98252 70.1206 9.65728 69.5282 9.84149 68.9755L9.94868 68.654C9.98267 68.552 10 68.4452 10 68.3377V66.5542C10 66.2095 10.1776 65.889 10.47 65.7062L13.1267 64.0458C13.6048 63.747 13.7415 63.1122 13.4287 62.6431L11.084 59.126C11.0283 59.0425 10.9604 58.9678 10.8825 58.9045L3.36941 52.8001C3.1357 52.6103 3 52.3252 3 52.024V44.693C3 44.2762 3.25857 43.903 3.64888 43.7567L10.8769 41.0462C10.9586 41.0155 11.036 40.9743 11.107 40.9236L14.3871 38.5807C14.462 38.5271 14.5292 38.4635 14.5867 38.3916L16.0246 36.5942C16.3055 36.2431 16.7862 36.1226 17.1994 36.2998L19.5021 37.2866C19.8127 37.4197 20.1695 37.387 20.4507 37.1995L20.7824 36.9784C21.1947 36.7035 21.7462 36.7721 22.0786 37.1395L31 47L39.3567 54.4282C39.7265 54.7569 40.2811 54.7657 40.6612 54.449L42.3916 53.007C42.7481 52.71 42.8533 52.2067 42.6458 51.7916L41.1056 48.7111C41.0361 48.5723 41 48.4192 41 48.2639V44.5C41 44.1852 40.8518 43.8889 40.6 43.7L37.4 41.3C37.1482 41.1111 37 40.8148 37 40.5V36.0542C37 35.7095 36.8224 35.389 36.53 35.2062L33.0966 33.0604C33.0324 33.0203 32.973 32.973 32.9195 32.9195L25.1147 25.1147C25.0387 25.0387 24.9755 24.951 24.9274 24.8549L21.5398 18.0796C21.5133 18.0266 21.4916 17.9714 21.4749 17.9146L19.0406 9.63816C19.0137 9.54653 19 9.4515 19 9.35599V8.5C19 7.94772 19.4477 7.5 20 7.5H37.5C38.0523 7.5 38.5 7.05228 38.5 6.5V5C38.5 4.44772 38.9477 4 39.5 4H44C44.5523 4 45 4.44772 45 5V7C45 7.55228 45.4477 8 46 8H54C54.5523 8 55 7.55228 55 7V6.03278C55 5.46786 55.4676 5.01508 56.0322 5.0333L69.4678 5.4667C70.0324 5.48492 70.5 5.03214 70.5 4.46722V4C70.5 3.44772 70.9477 3 71.5 3H73C73.5523 3 74 3.44772 74 4V4.5C74 5.05228 74.4477 5.5 75 5.5H86.5C86.7761 5.5 87 5.27614 87 5C87 4.72386 87.2239 4.5 87.5 4.5C87.7761 4.5 88 4.72386 88 5V7C88 7.55228 88.4477 8 89 8Z" stroke="#FC4C02" stroke-width="5"/>
</svg>
