<svg width="154" height="118" viewBox="0 0 154 118" fill="none" xmlns="http://www.w3.org/2000/svg">
<path d="M150 77.6623V114.5C150 115.052 149.552 115.5 149 115.5H73.4142C73.149 115.5 72.8946 115.395 72.7071 115.207L70.7291 113.229C70.5802 113.08 70.4821 112.888 70.4488 112.68L66.5196 88.1222C66.5066 88.041 66.4836 87.9618 66.4513 87.8863L62.0759 77.677C62.0257 77.5601 61.9538 77.4538 61.8638 77.3638L55.1532 70.6532C55.0522 70.5522 54.9308 70.4741 54.7972 70.4239L43.1698 66.0637C43.0575 66.0216 42.9386 66 42.8187 66H28C27.4477 66 27 65.5523 27 65V53.154C27 52.7567 26.7648 52.3971 26.4008 52.2379L3.91407 42.3999C3.4089 42.1789 3.17796 41.5907 3.39782 41.085L7.91707 30.6907C7.97177 30.5649 8 30.4292 8 30.292V4C8 3.44772 8.44771 3 9 3H26.4116C26.7748 3 27.1094 3.19689 27.2858 3.51436L31.9094 11.8369C31.9693 11.9447 32.0486 12.0405 32.1434 12.1195L37.7219 16.7682C37.9016 16.918 38.1281 17 38.362 17H51.8648C51.9545 17 52.0439 17.0121 52.1304 17.0359L100.266 30.2977C100.699 30.4172 101 30.8118 101 31.2617V72C101 72.5523 101.448 73 102 73H150.113C150.795 73 151.277 73.6687 151.061 74.3162L150.051 77.346C150.017 77.448 150 77.5548 150 77.6623Z" stroke="#5AFF81" stroke-width="5"/>
</svg>
