<svg width="77" height="50" viewBox="0 0 77 50" fill="none" xmlns="http://www.w3.org/2000/svg">
<path d="M13.5 0L16.5309 9.32827H26.3393L18.4042 15.0935L21.4351 24.4217L13.5 18.6565L5.5649 24.4217L8.59584 15.0935L0.660737 9.32827H10.4691L13.5 0Z" fill="#830AFE"/>
<path d="M67.909 22.651C66.643 22.651 65.44 22.911 64.347 23.378L61.271 18.107L63.589 14.134C63.904 13.592 63.721 12.896 63.18 12.579C62.942 12.441 62.677 12.191 62.426 12.232L62.229 12H57.682C57.055 12 56.546 12.873 56.546 13.5C56.546 14.128 57.055 15 57.682 15H60.629L59.302 17H46.024L48.676 12H49.727C50.354 12 50.863 11.628 50.863 11C50.863 10.372 50.354 10 49.727 10H44.044C43.418 10 42.908 10.372 42.908 11C42.908 11.628 43.417 12 44.044 12H46.043L39.654 23.165C38.56 22.698 37.355 22.545 36.09 22.545C31.07 22.545 27 26.669 27 31.689C27 36.71 31.07 40.806 36.091 40.806C41.112 40.806 45.182 36.749 45.182 31.728C45.182 28.788 43.78 26.187 41.612 24.524L44.045 20.358L51.019 32.314L51.046 32.352L51.076 32.397L51.099 32.431L51.189 32.535L51.2 32.548L51.231 32.576L51.263 32.602L51.351 32.672L51.388 32.696L51.417 32.715L51.429 32.722L51.433 32.726L51.529 32.773L51.54 32.778L51.563 32.79L51.571 32.792L51.644 32.818L51.712 32.84L51.726 32.844L51.751 32.848L51.795 32.857L51.999 32.878L52 32.94L52.004 32.999H58.895C59.457 36.999 63.273 40.894 67.908 40.894C72.929 40.894 76.999 36.793 76.999 31.772C77 26.752 72.93 22.651 67.909 22.651V22.651ZM42.909 31.742C42.909 35.509 39.857 38.561 36.091 38.561C32.325 38.561 29.273 35.508 29.273 31.742C29.273 27.977 32.325 24.925 36.091 24.925C36.938 24.925 37.746 25.086 38.494 25.369L35.109 31.171C34.793 31.712 34.977 32.408 35.519 32.726C35.699 32.83 35.896 32.88 36.09 32.88C36.481 32.88 36.861 32.678 37.073 32.317L40.459 26.511C41.955 27.762 42.909 29.641 42.909 31.742ZM52 29.244L46.024 19H57.977L52 29.244ZM59.954 20.559L62.388 24.827C60.506 26.271 59.206 28 58.896 31H53.978L59.954 20.559ZM63.541 26.904L65.932 31H61.194C61.468 29 62.32 27.925 63.541 26.904ZM67.909 38.623C64.532 38.623 61.734 36 61.193 33H67.906L67.911 32.941L68.114 32.888L68.16 32.865L68.349 32.799L68.37 32.783L68.483 32.725L68.51 32.704L68.611 32.631L68.689 32.565L68.765 32.482L68.833 32.397L68.89 32.305L68.942 32.21L68.981 32.106L69.012 32.002L69.029 31.898L69.042 31.775L69.045 31.74L69.04 31.676L69.026 31.552L69.003 31.446L68.97 31.342L68.918 31.229L68.891 31.17L65.506 25.368C66.256 25.085 67.063 24.924 67.909 24.924C71.676 24.924 74.728 28.007 74.728 31.772C74.729 35.539 71.676 38.623 67.909 38.623V38.623Z" fill="#FC4C02"/>
</svg>
