<svg width="72" height="89" viewBox="0 0 72 89" fill="none" xmlns="http://www.w3.org/2000/svg">
<g opacity="0.3" filter="url(#filter0_f)">
<path d="M68 5H36H4V52.8791L36 85L68 52.8791V5Z" fill="black"/>
</g>
<mask id="mask0" mask-type="alpha" maskUnits="userSpaceOnUse" x="4" y="0" width="64" height="80">
<path d="M68 0H36H4V47.8791L36 80L68 47.8791V0Z" fill="#FC4C02"/>
</mask>
<g mask="url(#mask0)">
<rect x="-29.2715" y="16.4085" width="104.718" height="24.2974" transform="rotate(-30 -29.2715 16.4085)" fill="#5AFF81" stroke="#5AFF81"/>
<rect x="-17.5079" y="36.2502" width="104.585" height="17.7401" transform="rotate(-30 -17.5079 36.2502)" fill="#E5D330" stroke="#E5D330"/>
<rect x="-11.0535" y="51.5856" width="106.797" height="16.6377" transform="rotate(-30 -11.0535 51.5856)" fill="#FF8239" stroke="#FF8239"/>
<rect x="-5.45847" y="67.1442" width="109.365" height="17.7401" transform="rotate(-30 -5.45847 67.1442)" fill="#EA54F1" stroke="#EA54F1"/>
<rect x="1.86009" y="82.9807" width="110.579" height="16.6377" transform="rotate(-30 1.86009 82.9807)" fill="#3872FF" stroke="#3872FF"/>
<mask id="path-8-inside-1" fill="white">
<path d="M51.909 21.651C50.643 21.651 49.44 21.911 48.347 22.378L45.271 17.107L47.589 13.134C47.904 12.592 47.721 11.896 47.18 11.579C46.942 11.441 46.677 11.191 46.426 11.232L46.229 11H41.682C41.055 11 40.546 11.873 40.546 12.5C40.546 13.128 41.055 14 41.682 14H44.629L43.302 16H30.024L32.676 11H33.727C34.354 11 34.863 10.628 34.863 10C34.863 9.372 34.354 9 33.727 9H28.044C27.418 9 26.908 9.372 26.908 10C26.908 10.628 27.417 11 28.044 11H30.043L23.654 22.165C22.56 21.698 21.355 21.545 20.09 21.545C15.07 21.545 11 25.669 11 30.689C11 35.71 15.07 39.806 20.091 39.806C25.112 39.806 29.182 35.749 29.182 30.728C29.182 27.788 27.78 25.187 25.612 23.524L28.045 19.358L35.019 31.314L35.046 31.352L35.076 31.397L35.099 31.431L35.189 31.535L35.2 31.548L35.231 31.576L35.263 31.602L35.351 31.672L35.388 31.696L35.417 31.715L35.429 31.722L35.433 31.726L35.529 31.773L35.54 31.778L35.563 31.79L35.571 31.792L35.644 31.818L35.712 31.84L35.726 31.844L35.751 31.848L35.795 31.857L35.999 31.878L36 31.94L36.004 31.999H42.895C43.457 35.999 47.273 39.894 51.908 39.894C56.929 39.894 60.999 35.793 60.999 30.772C61 25.752 56.93 21.651 51.909 21.651V21.651ZM26.909 30.742C26.909 34.509 23.857 37.561 20.091 37.561C16.325 37.561 13.273 34.508 13.273 30.742C13.273 26.977 16.325 23.925 20.091 23.925C20.938 23.925 21.746 24.086 22.494 24.369L19.109 30.171C18.793 30.712 18.977 31.408 19.519 31.726C19.699 31.83 19.896 31.88 20.09 31.88C20.481 31.88 20.861 31.678 21.073 31.317L24.459 25.511C25.955 26.762 26.909 28.641 26.909 30.742ZM36 28.244L30.024 18H41.977L36 28.244ZM43.954 19.559L46.388 23.827C44.506 25.271 43.206 27 42.896 30H37.978L43.954 19.559ZM47.541 25.904L49.932 30H45.194C45.468 28 46.32 26.925 47.541 25.904ZM51.909 37.623C48.532 37.623 45.734 35 45.193 32H51.906L51.911 31.941L52.114 31.888L52.16 31.865L52.349 31.799L52.37 31.783L52.483 31.725L52.51 31.704L52.611 31.631L52.689 31.565L52.765 31.482L52.833 31.397L52.89 31.305L52.942 31.21L52.981 31.106L53.012 31.002L53.029 30.898L53.042 30.775L53.045 30.74L53.04 30.676L53.026 30.552L53.003 30.446L52.97 30.342L52.918 30.229L52.891 30.17L49.506 24.368C50.256 24.085 51.063 23.924 51.909 23.924C55.676 23.924 58.728 27.007 58.728 30.772C58.729 34.539 55.676 37.623 51.909 37.623V37.623Z"/>
</mask>
<path d="M51.909 21.651C50.643 21.651 49.44 21.911 48.347 22.378L45.271 17.107L47.589 13.134C47.904 12.592 47.721 11.896 47.18 11.579C46.942 11.441 46.677 11.191 46.426 11.232L46.229 11H41.682C41.055 11 40.546 11.873 40.546 12.5C40.546 13.128 41.055 14 41.682 14H44.629L43.302 16H30.024L32.676 11H33.727C34.354 11 34.863 10.628 34.863 10C34.863 9.372 34.354 9 33.727 9H28.044C27.418 9 26.908 9.372 26.908 10C26.908 10.628 27.417 11 28.044 11H30.043L23.654 22.165C22.56 21.698 21.355 21.545 20.09 21.545C15.07 21.545 11 25.669 11 30.689C11 35.71 15.07 39.806 20.091 39.806C25.112 39.806 29.182 35.749 29.182 30.728C29.182 27.788 27.78 25.187 25.612 23.524L28.045 19.358L35.019 31.314L35.046 31.352L35.076 31.397L35.099 31.431L35.189 31.535L35.2 31.548L35.231 31.576L35.263 31.602L35.351 31.672L35.388 31.696L35.417 31.715L35.429 31.722L35.433 31.726L35.529 31.773L35.54 31.778L35.563 31.79L35.571 31.792L35.644 31.818L35.712 31.84L35.726 31.844L35.751 31.848L35.795 31.857L35.999 31.878L36 31.94L36.004 31.999H42.895C43.457 35.999 47.273 39.894 51.908 39.894C56.929 39.894 60.999 35.793 60.999 30.772C61 25.752 56.93 21.651 51.909 21.651V21.651ZM26.909 30.742C26.909 34.509 23.857 37.561 20.091 37.561C16.325 37.561 13.273 34.508 13.273 30.742C13.273 26.977 16.325 23.925 20.091 23.925C20.938 23.925 21.746 24.086 22.494 24.369L19.109 30.171C18.793 30.712 18.977 31.408 19.519 31.726C19.699 31.83 19.896 31.88 20.09 31.88C20.481 31.88 20.861 31.678 21.073 31.317L24.459 25.511C25.955 26.762 26.909 28.641 26.909 30.742ZM36 28.244L30.024 18H41.977L36 28.244ZM43.954 19.559L46.388 23.827C44.506 25.271 43.206 27 42.896 30H37.978L43.954 19.559ZM47.541 25.904L49.932 30H45.194C45.468 28 46.32 26.925 47.541 25.904ZM51.909 37.623C48.532 37.623 45.734 35 45.193 32H51.906L51.911 31.941L52.114 31.888L52.16 31.865L52.349 31.799L52.37 31.783L52.483 31.725L52.51 31.704L52.611 31.631L52.689 31.565L52.765 31.482L52.833 31.397L52.89 31.305L52.942 31.21L52.981 31.106L53.012 31.002L53.029 30.898L53.042 30.775L53.045 30.74L53.04 30.676L53.026 30.552L53.003 30.446L52.97 30.342L52.918 30.229L52.891 30.17L49.506 24.368C50.256 24.085 51.063 23.924 51.909 23.924C55.676 23.924 58.728 27.007 58.728 30.772C58.729 34.539 55.676 37.623 51.909 37.623V37.623Z" fill="#EEEEEE" stroke="white" stroke-width="2" mask="url(#path-8-inside-1)"/>
</g>
<defs>
<filter id="filter0_f" x="0" y="1" width="72" height="88" filterUnits="userSpaceOnUse" color-interpolation-filters="sRGB">
<feFlood flood-opacity="0" result="BackgroundImageFix"/>
<feBlend mode="normal" in="SourceGraphic" in2="BackgroundImageFix" result="shape"/>
<feGaussianBlur stdDeviation="2" result="effect1_foregroundBlur"/>
</filter>
</defs>
</svg>
